<svg id="visual" viewBox="0 0 1366 768" width="1366" height="768" xmlns="http://www.w3.org/2000/svg" xmlns:xlink="http://www.w3.org/1999/xlink" version="1.1"><g><g transform="translate(539 561)"><path d="M106.6 -82.5C132.6 -52.4 144.4 -8.4 135.4 30.8C126.4 69.9 96.5 104.1 57.5 125.1C18.5 146.1 -29.6 153.8 -63.8 136C-97.9 118.2 -118.1 74.9 -123 33.8C-127.8 -7.3 -117.3 -46.2 -94.2 -75.8C-71.2 -105.3 -35.6 -125.4 2.3 -127.2C40.3 -129.1 80.6 -112.7 106.6 -82.5Z" fill="none" stroke="#545bd7" stroke-width="20"></path></g><g transform="translate(1042 382)"><path d="M71.9 -56.4C89.3 -35.4 97.1 -5.7 92.3 23.5C87.6 52.8 70.4 81.7 44 96.2C17.7 110.7 -17.9 110.8 -45.9 96.8C-73.8 82.7 -94.3 54.4 -98.5 25.5C-102.7 -3.5 -90.8 -33.2 -71.7 -54.6C-52.6 -75.9 -26.3 -88.9 0.5 -89.3C27.2 -89.7 54.4 -77.4 71.9 -56.4Z" fill="none" stroke="#545bd7" stroke-width="20"></path></g><g transform="translate(220 194)"><path d="M76.4 -60.2C94.2 -38.5 100.6 -7 93.8 20.7C86.9 48.5 66.7 72.5 40.3 86.2C13.9 99.9 -18.6 103.1 -44.3 91.1C-70 79.1 -88.8 51.8 -94.6 22.7C-100.4 -6.5 -93.2 -37.5 -75.3 -59.2C-57.4 -80.9 -28.7 -93.2 0.3 -93.4C29.3 -93.6 58.5 -81.8 76.4 -60.2Z" fill="none" stroke="#545bd7" stroke-width="20"></path></g></g></svg>