<svg id="visual" viewBox="0 0 1366 768" width="1366" height="768" xmlns="http://www.w3.org/2000/svg" xmlns:xlink="http://www.w3.org/1999/xlink" version="1.1"><g><g transform="translate(291 216)"><path d="M101.9 -83.2C126.7 -50.2 137.6 -8.2 130 31.5C122.4 71.2 96.3 108.5 59.6 127.6C22.9 146.8 -24.4 147.7 -64.4 129.9C-104.5 112.1 -137.4 75.5 -146 34.3C-154.7 -6.9 -139.1 -52.7 -110.7 -86.5C-82.4 -120.4 -41.2 -142.2 -1.3 -141.2C38.6 -140.1 77.1 -116.2 101.9 -83.2Z" fill="#545bd7"></path></g><g transform="translate(599 416)"><path d="M96.2 -78.5C117.6 -49.9 123 -10.3 113.8 24.4C104.6 59 80.8 88.8 50.4 102.7C19.9 116.7 -17.3 114.8 -49.5 100.3C-81.7 85.7 -109 58.4 -114.6 27.9C-120.2 -2.6 -104.1 -36.4 -81.4 -65.3C-58.7 -94.2 -29.3 -118.2 4 -121.5C37.4 -124.7 74.8 -107.1 96.2 -78.5Z" fill="#545bd7"></path></g><g transform="translate(1181 302)"><path d="M72.1 -55.3C89.6 -35.7 97 -5.9 90.5 19.9C84 45.7 63.6 67.6 39.5 77.3C15.5 87.1 -12 84.6 -36.6 73.7C-61.2 62.8 -82.8 43.3 -88.6 19.7C-94.4 -3.9 -84.4 -31.6 -67 -51.2C-49.6 -70.8 -24.8 -82.3 1.3 -83.3C27.4 -84.3 54.7 -74.9 72.1 -55.3Z" fill="#545bd7"></path></g></g></svg>