<svg id="visual" viewBox="0 0 1366 768" width="1366" height="768" xmlns="http://www.w3.org/2000/svg" xmlns:xlink="http://www.w3.org/1999/xlink" version="1.1"><g><g transform="translate(1123 241)"><path d="M112.7 -86.5C139 -56.9 148.3 -10.5 137.4 28.9C126.4 68.2 95.1 100.3 58.7 115.3C22.4 130.2 -19.1 127.9 -53.4 111.2C-87.7 94.5 -114.9 63.5 -126.4 25.3C-138 -12.8 -133.8 -58.1 -110.1 -87.1C-86.5 -116 -43.2 -128.7 0 -128.7C43.2 -128.7 86.4 -116 112.7 -86.5Z" fill="#FF0066"></path></g><g transform="translate(573 413)"><path d="M72.9 -58.5C89.7 -37.1 95.1 -7.1 89.2 21.1C83.4 49.3 66.3 75.8 42.3 87.1C18.3 98.3 -12.7 94.5 -36.4 81C-60.1 67.5 -76.6 44.4 -84.1 17.5C-91.6 -9.4 -90.1 -40 -74.6 -61.1C-59 -82.1 -29.5 -93.7 -0.7 -93.1C28.1 -92.5 56.2 -79.9 72.9 -58.5Z" fill="#FF0066"></path></g><g transform="translate(217 186)"><path d="M101.1 -83.2C122.1 -54.3 124 -12.8 115.4 27C106.8 66.8 87.9 104.9 55.7 123.2C23.6 141.6 -21.6 140.1 -57.6 121.9C-93.6 103.7 -120.3 68.6 -126.2 32C-132 -4.7 -116.9 -43 -92.4 -72.7C-67.9 -102.4 -33.9 -123.5 3.1 -126C40.1 -128.4 80.1 -112.1 101.1 -83.2Z" fill="#FF0066"></path></g><g transform="translate(912 542)"><path d="M74.6 -58.9C91.8 -37.9 97.6 -7.2 90.5 19.3C83.4 45.8 63.4 68.1 36.8 83.8C10.1 99.5 -23.3 108.7 -51.9 98.5C-80.4 88.3 -104 58.7 -107.8 28.5C-111.6 -1.8 -95.6 -32.6 -74.4 -54.6C-53.1 -76.5 -26.6 -89.4 1.1 -90.3C28.7 -91.1 57.4 -79.9 74.6 -58.9Z" fill="#FF0066"></path></g></g></svg>