<svg id="visual" viewBox="0 0 900 600" width="900" height="600" xmlns="http://www.w3.org/2000/svg" xmlns:xlink="http://www.w3.org/1999/xlink" version="1.1"><g><g transform="translate(313 313)"><path d="M84.6 -65.5C105 -41.8 113.8 -6.9 108.2 27.5C102.5 61.8 82.4 95.7 52.2 111.5C21.9 127.3 -18.6 125 -50.2 108.3C-81.7 91.5 -104.3 60.2 -109.5 27.8C-114.7 -4.7 -102.5 -38.4 -81.3 -62.2C-60.2 -86.1 -30.1 -100.1 1 -100.9C32.1 -101.6 64.1 -89.2 84.6 -65.5Z" fill="#F7760E"></path></g><g transform="translate(713 166)"><path d="M81.9 -66.8C102.6 -39.2 113.7 -5.4 106.7 24.1C99.8 53.5 74.8 78.6 45.3 92.1C15.7 105.7 -18.6 107.7 -44.6 94.4C-70.6 81.2 -88.4 52.7 -93.8 23C-99.3 -6.6 -92.5 -37.5 -74.8 -64.4C-57.2 -91.2 -28.6 -114 1 -114.8C30.5 -115.6 61.1 -94.3 81.9 -66.8Z" fill="#F7760E"></path></g><g transform="translate(577 451)"><path d="M55.2 -45.2C67.6 -28.5 71 -5.8 65.7 14C60.4 33.7 46.4 50.4 27.7 60.6C9.1 70.7 -14.2 74.2 -32.9 66.1C-51.7 57.9 -66 38.1 -69.3 17.6C-72.6 -3 -64.8 -24.3 -51.5 -41.2C-38.1 -58.1 -19 -70.7 1.2 -71.6C21.4 -72.6 42.8 -61.9 55.2 -45.2Z" fill="#F7760E"></path></g></g></svg>