<svg id="visual" viewBox="0 0 1366 768" width="1366" height="768" xmlns="http://www.w3.org/2000/svg" xmlns:xlink="http://www.w3.org/1999/xlink" version="1.1"><g><g transform="translate(714 538)"><path d="M115.3 -93.5C144 -55.9 158.3 -8.2 149.7 36.2C141.2 80.6 109.8 121.7 69.3 139.6C28.8 157.5 -20.9 152.1 -66.7 132.4C-112.5 112.7 -154.4 78.8 -166.9 35C-179.3 -8.8 -162.5 -62.5 -129.7 -101C-97 -139.5 -48.5 -162.8 -2.6 -160.7C43.3 -158.6 86.5 -131.1 115.3 -93.5Z" fill="#535cd8"></path></g><g transform="translate(1096 207)"><path d="M79.9 -63.8C96.4 -43.1 97.7 -10.2 90.3 19.9C82.8 50.1 66.7 77.6 43.3 88.3C19.9 98.9 -10.9 92.7 -38.3 79.5C-65.8 66.4 -89.9 46.2 -98.3 19.6C-106.7 -7.1 -99.3 -40.2 -80.3 -61.5C-61.3 -82.9 -30.7 -92.4 0.5 -92.8C31.7 -93.3 63.5 -84.6 79.9 -63.8Z" fill="#fb5d27"></path></g><g transform="translate(323 329)"><path d="M72.8 -60.7C90.8 -35.6 99.2 -5.5 95.5 26.1C91.7 57.7 75.7 90.9 48.3 106.4C21 121.8 -17.8 119.7 -49.3 103.9C-80.8 88.2 -105 58.8 -113 25.4C-121 -8.1 -112.8 -45.7 -91.2 -71.7C-69.7 -97.6 -34.8 -112 -3.7 -109C27.4 -106.1 54.9 -85.9 72.8 -60.7Z" fill="#FF0066"></path></g></g></svg>