<svg id="visual" viewBox="0 0 900 600" width="900" height="600" xmlns="http://www.w3.org/2000/svg" xmlns:xlink="http://www.w3.org/1999/xlink" version="1.1"><g><g transform="translate(214 298)"><path d="M106.9 -35.8C119.4 3.7 97.1 53.4 61.3 77.9C25.5 102.4 -23.9 101.7 -54.8 78.5C-85.7 55.3 -98.1 9.7 -85.9 -29.4C-73.7 -68.5 -36.8 -101 5.2 -102.7C47.2 -104.4 94.4 -75.2 106.9 -35.8Z" fill="#F7760E"></path></g><g transform="translate(699 179)"><path d="M71.5 -27C79.3 0.6 62.9 32.3 37.9 50.1C12.8 67.8 -20.9 71.5 -42.4 56.4C-63.9 41.2 -73.2 7.2 -64.1 -22.3C-55 -51.7 -27.5 -76.6 2.2 -77.4C31.9 -78.1 63.8 -54.6 71.5 -27Z" fill="#F7760E"></path></g><g transform="translate(483 443)"><path d="M67.5 -22.9C76 4.2 63.5 37.2 39.7 54.5C15.9 71.7 -19.1 73.2 -42.1 56.7C-65.2 40.3 -76.1 6 -67.1 -21.8C-58 -49.7 -29 -71.1 0.2 -71.2C29.5 -71.3 59 -50 67.5 -22.9Z" fill="#F7760E"></path></g></g></svg>